<svg xmlns="http://www.w3.org/2000/svg"  viewBox="0 0 30 30" width="30px" height="30px"><rect width="11.065" height="10.125" x="8.435" y="17.928" fill="#ffeea3"/><path fill="#ba9b48" d="M20,28.553H7.935V17.428H20V28.553z M8.935,27.553H19v-9.125H8.935V27.553z"/><rect width="1" height="6.731" x="16" y="20.84" fill="#ba9b48"/><rect width="1" height="6.731" x="13" y="20.84" fill="#ba9b48"/><path fill="#c5d4de" d="M10.729,24.837v-0.235c0-1.324,1.073-2.163,2.397-2.163l8.234,0V10.402	c0-3.246-2.836-5.902-6.301-5.902h-3.258C8.336,4.5,5.5,7.156,5.5,10.402v18.99h14.337V26.54h-6.71	C11.802,26.54,10.729,26.161,10.729,24.837z"/><path fill="#fff" d="M7.5,27.018c-0.276,0-0.5-0.224-0.5-0.5V10.5C7,8.103,8.979,6,11.235,6c0.276,0,0.5,0.224,0.5,0.5 S11.512,7,11.235,7C9.512,7,8,8.636,8,10.5v16.018C8,26.794,7.776,27.018,7.5,27.018z"/><polygon fill="#b0c1d4" points="10.837,19.677 13.817,22.414 21.11,22.414 21.11,20.026"/><rect width="2" height="3" x="11.5" y=".5" fill="#c5d4de"/><path fill="#788b9c" d="M14,4h-3V0h3V4z M12,3h1V1h-1V3z"/><rect width="1" height="1.5" x="12" fill="#c5d4de"/><path fill="#788b9c" d="M20,30H5V10.401C5,6.872,8.02,4,11.732,4h3.222c3.712,0,6.732,2.872,6.732,6.401v8.382l0.304,1.523 L22,23h-9.03c-0.96,0-1.933,0.496-1.933,1.444v0.169c0,0.953,1.002,1.387,1.933,1.387H20V30z M6,29h13v-2h-6.03 c-1.458,0-2.933-0.819-2.933-2.387v-0.169c0-1.588,1.511-2.444,2.933-2.444H21v-1.599l-0.304-1.523l-0.009-8.477 C20.687,7.423,18.115,5,14.955,5h-3.222C8.572,5,6,7.423,6,10.401V29z"/><path fill="#e1ebf2" d="M24.437,11.702c-0.677-0.734-1.637-1.202-2.708-1.202H11.2c-2.035,0-3.7,1.665-3.7,3.7v0.07 c0,1.064,0.461,2.019,1.186,2.695l2.001,2.425l2.516-1L12.94,17.97h8.789c1.685,0,3.101-1.149,3.543-2.697l0.557,0.211 l0.625-1.766L24.437,11.702z"/><path fill="#788b9c" d="M10.393,19.796l-2.09-2.511C7.478,16.521,7,15.436,7,14.271C7,11.884,8.884,10,11.2,10h10.528 c1.155,0,2.275,0.497,3.075,1.363l2.191,2.276l-0.862,2.495l-0.562-0.214c-0.657,1.524-2.167,2.549-3.842,2.549h-7.886 l0.128,0.204L10.393,19.796z M11.2,11C9.436,11,8,12.436,8,14.2c0,0.954,0.365,1.781,1.027,2.398l1.705,2.043l1.704-0.534 l-0.399-0.638h9.692c1.411,0,2.67-0.96,3.062-2.334l0.149-0.522l0.584,0.221l0.325-0.942l-1.773-1.843 C23.449,11.37,22.618,11,21.729,11H11.2z"/><path fill="#36404d" d="M22.88,19.157h-9.123c-1.756,0-3.193-1.437-3.193-3.193v0c0-1.756,1.437-3.193,3.193-3.193h9.123	c1.756,0,3.193,1.437,3.193,3.193v0C26.073,17.72,24.636,19.157,22.88,19.157z"/><circle cx="19.177" cy="16.159" r="3.323" fill="#ffeea3"/><path fill="#ba9b48" d="M19.177,19.982c-2.108,0-3.823-1.715-3.823-3.823s1.715-3.823,3.823-3.823S23,14.051,23,16.159 S21.285,19.982,19.177,19.982z M19.177,13.336c-1.557,0-2.823,1.267-2.823,2.823s1.267,2.823,2.823,2.823S22,17.716,22,16.159 S20.733,13.336,19.177,13.336z"/><circle cx="13.177" cy="16.159" r="3.323" fill="#ffeea3"/><path fill="#ba9b48" d="M13.177,19.982c-2.108,0-3.823-1.715-3.823-3.823s1.715-3.823,3.823-3.823S17,14.051,17,16.159 S15.285,19.982,13.177,19.982z M13.177,13.336c-1.557,0-2.823,1.267-2.823,2.823s1.267,2.823,2.823,2.823S16,17.716,16,16.159 S14.733,13.336,13.177,13.336z"/><circle cx="18.412" cy="16.586" r=".586" fill="#66798f"/><circle cx="12.436" cy="16.586" r=".586" fill="#66798f"/><g><path fill="#e1ebf2" d="M23.7,12.5H13.3c-2.09,0-3.8,1.8-3.8,4c0,2.2,1.71,4,3.8,4h10.4c2.09,0,3.8-1.8,3.8-4 C27.5,14.3,25.79,12.5,23.7,12.5z M23.156,18.5h-9.313c-1.289,0-2.344-0.9-2.344-2s1.055-2,2.344-2h9.313 c1.289,0,2.344,0.9,2.344,2S24.445,18.5,23.156,18.5z"/><path fill="#788b9c" d="M23.7,21H13.3C10.929,21,9,18.981,9,16.5s1.929-4.5,4.3-4.5h10.4c2.371,0,4.3,2.019,4.3,4.5 S26.071,21,23.7,21z M13.3,13c-1.819,0-3.3,1.57-3.3,3.5s1.48,3.5,3.3,3.5h10.4c1.819,0,3.3-1.57,3.3-3.5S25.52,13,23.7,13H13.3z M23.156,19h-9.313C12.276,19,11,17.879,11,16.5s1.276-2.5,2.844-2.5h9.313C24.724,14,26,15.121,26,16.5S24.724,19,23.156,19z M13.844,15C12.827,15,12,15.673,12,16.5s0.827,1.5,1.844,1.5h9.313C24.173,18,25,17.327,25,16.5S24.173,15,23.156,15H13.844z"/></g><g><polygon fill="#e1ebf2" points="14.007,2.5 10.993,2.5 10,4.5 15,4.5"/><path fill="#788b9c" d="M15.807,5H9.193l1.49-3h3.634L15.807,5z M10.807,4h3.387l-0.497-1h-2.394L10.807,4z"/></g></svg>